<?xml version="1.0" encoding="utf-8"?>
<svg version="1.1" id="Layer_1" xmlns="http://www.w3.org/2000/svg" xmlns:xlink="http://www.w3.org/1999/xlink" x="0px" y="0px"
	 viewBox="0 0 100 100" style="enable-background:new 0 0 100 100;" xml:space="preserve">
<style type="text/css">
	.st0{fill-rule:evenodd;clip-rule:evenodd;fill:#FFFFFF;}
	.st1{fill-rule:evenodd;clip-rule:evenodd;fill:#DA262A;}
</style>
<circle id="c1" cx="50" cy="50" r="50"/>
<circle id="c3" cx="50" cy="50" r="50"/>
<circle id="c4" cx="50" cy="50" r="30"/>
<path class="st0" d="M65.2,62.5l1.2,3L50,64.8l-16.4,0.7l1.2-3L25,40.2c0,0,2.2,1.7,4.7,2.5c2.5,0.9,5.4,0.9,5.4,0.9s-0.1,1-0.1,2.3
	c-0.1,1-0.2,2.2,0,3.3c0.3,1.4,1.3,2.7,2.3,3.3c2.9,1.7,5.3,0.6,6.2-0.8c0.5-0.8,0.5-1.8,0.5-1.8l-2.8-7c0,0,3.5-0.9,5.7-3
	c2.2-2.1,3.1-5.4,3.1-5.4s0.9,3.3,3.1,5.4s5.7,3,5.7,3l-2.8,7c0,0,0,0.9,0.5,1.8c0.9,1.4,3.3,2.5,6.2,0.8c1-0.6,2.1-1.8,2.3-3.3
	c0.2-1.1,0.1-2.3,0-3.3c-0.1-1.3-0.1-2.3-0.1-2.3s2.8-0.1,5.4-0.9c2.5-0.9,4.7-2.5,4.7-2.5L65.2,62.5z"/>
<path class="st1" d="M43.2,57.1l26.2-4.3L69,54l-26.2,4.3L43.2,57.1z"/>
<path class="st1" d="M37.8,60.1l27.1-4.4l-0.5,1.1l-27.1,4.4L37.8,60.1z"/>
<path class="st1" d="M34.9,62.8l26.6-4.3L61,59.5l-26.6,4.3L34.9,62.8z"/>
<radialGradient id="SVGID_1_" cx="50" cy="50" r="30" gradientUnits="userSpaceOnUse">
	<stop  offset="0" style="stop-color:#DA262B;stop-opacity:0.5"/>
	<stop  offset="1" style="stop-color:#DA262B;stop-opacity:0"/>
</radialGradient>
<style>
body{background:black;}
svg{display:inline-block;vertical-align:middle; wdth:20px; height:20px;}
#c1, #c3{
	fill:transparent;
	transition: all 1s ease;
	stroke:#DA262B;stroke-miterlimit:10;
	transform-origin:center;
	animation: growOut 1.5s forwards infinite;
	animation-delay: calc(var(--order)*300ms);
}
#c3{
	animation: growOut 1.5s forwards infinite;
	animation-delay:380ms;
}
#c4{

	fill:url(#SVGID_1_);
	transform-origin:center;
	transform: scale(1);
}
@keyframes growOut{
	from{
		transform: scale(0.1);
		opacity:1;
	}
	
	to{
		transform: scale(1);
		opacity:0;
	}
}
</style>
</svg>
